<svg width="80" height="86" viewBox="0 0 80 86" fill="none" xmlns="http://www.w3.org/2000/svg">
<rect width="80" height="86" fill="black"/>
<path d="M34.192 49.888H28.6V52.912H33.88V56.896H28.6V60.016H34.192V64H23.896V45.904H34.192V49.888ZM37.5835 64V45.904H42.2875L50.9755 56.968V45.904H55.6555V64H50.9755L42.2875 52.936V64H37.5835Z" fill="white"/>
<path d="M36.264 24.888H30.6V27.912H35.76V31.896H30.6V39H25.896V20.904H36.264V24.888ZM43.7719 28.992H44.6599C45.5879 28.992 46.2999 28.8 46.7959 28.416C47.2919 28.032 47.5399 27.48 47.5399 26.76C47.5399 26.04 47.2919 25.488 46.7959 25.104C46.2999 24.72 45.5879 24.528 44.6599 24.528H43.7719V28.992ZM54.1159 39H48.2599L43.7719 32.04V39H39.0679V20.904H46.3879C47.3959 20.904 48.2759 21.056 49.0279 21.36C49.7799 21.648 50.3959 22.048 50.8759 22.56C51.3719 23.072 51.7399 23.664 51.9799 24.336C52.2359 25.008 52.3639 25.728 52.3639 26.496C52.3639 27.872 52.0279 28.992 51.3559 29.856C50.6999 30.704 49.7239 31.28 48.4279 31.584L54.1159 39Z" fill="white"/>
</svg>
